<svg width="1000" height="1000" viewBox="0 0 1000 1000" fill="none" xmlns="http://www.w3.org/2000/svg">
<rect width="1000" height="1000" rx="333" fill="#3E63DD"/>
<path d="M609.464 684.366H470.03V605.13H609.464L655.77 644.748L609.464 684.366Z" fill="white"/>
<path d="M196.307 745.079H453.822V665.843H196.307L150 705.461L196.307 745.079Z" fill="white"/>
<path d="M470.03 684.366L453.822 745.079V665.843L470.03 605.13V684.366Z" fill="white"/>
<path d="M674.293 569.114H470.03V489.878H674.293L720.599 529.496L674.293 569.114Z" fill="white"/>
<path d="M261.136 629.827H453.822V550.591H261.136L214.829 590.209L261.136 629.827Z" fill="white"/>
<path d="M470.03 569.114L453.822 629.827V550.591L470.03 489.878V569.114Z" fill="white"/>
<path d="M739.122 453.862H470.029V374.626H739.122L785.171 414.244L739.122 453.862Z" fill="white"/>
<path d="M470.03 453.862L453.822 514.575V435.339L470.03 374.626V453.862Z" fill="white"/>
<path d="M325.965 514.574H453.822V435.339H325.965L279.658 474.956L325.965 514.574Z" fill="white"/>
<path d="M803.951 338.611H470.029V259.375H803.951L850 298.993L803.951 338.611Z" fill="white"/>
<path d="M470.03 338.611L453.822 399.324V320.088L470.03 259.375V338.611Z" fill="white"/>
<path d="M390.794 399.323H453.822V320.088H390.794L344.487 359.706L390.794 399.323Z" fill="white"/>
</svg>
